<?xml version="1.0" encoding="UTF-8"?>
<svg xmlns="http://www.w3.org/2000/svg" version="1.1" viewBox="0 0 23.2 14.7">
  <defs>
    <style>
      .cls-1 {
        fill: #9ac3f4;
      }

      .cls-2 {
        fill: #2f7ded;
      }
    </style>
  </defs>
  <!-- Generator: Adobe Illustrator 28.7.1, SVG Export Plug-In . SVG Version: 1.2.0 Build 142)  -->
  <g>
    <g id="Livello_1">
      <g id="cloud">
        <path class="cls-1" d="M23.3,7.7c-.5-2.7-2.9-4.7-5.7-4.7-.3,0-.6,0-.9,0C14.3-.2,9.7-1,6.4,1.4c-1.2.9-2.2,2.2-2.6,3.6C1.2,5.6-.4,8.2.1,10.8c.5,2.3,2.6,3.9,4.9,3.9h12.5c3.2,0,5.8-2.6,5.8-5.8,0-.4,0-.7-.1-1.1Z"/>
        <path class="cls-2" d="M17.5,14.7H5c-2.4,0-4.4-1.6-4.9-3.9-.6-2.6,1.1-5.2,3.7-5.8C5.1,1.2,9.2-.9,13,.4c1.4.5,2.7,1.4,3.6,2.6.3,0,.6,0,.9,0,3.2,0,5.8,2.6,5.8,5.8s-2.6,5.8-5.8,5.8ZM10.7,2c-2.5,0-4.7,1.7-5.2,4.1,0,.4-.4.7-.9.8-.8,0-1.6.5-2.1,1.1-.5.7-.7,1.6-.5,2.4.3,1.4,1.6,2.3,3,2.3h12.5c2.2,0,3.9-1.7,3.9-3.9s-1.7-3.9-3.9-3.9h0c-.4,0-.7,0-1.1.2-.4.1-.9,0-1.1-.4-1-1.7-2.7-2.7-4.6-2.6Z"/>
      </g>
    </g>
  </g>
</svg>