<?xml version="1.0" encoding="iso-8859-1"?>
<!-- Uploaded to: SVG Repo, www.svgrepo.com, Generator: SVG Repo Mixer Tools -->
<svg height="800px" width="800px" version="1.1" id="Layer_1" xmlns="http://www.w3.org/2000/svg" xmlns:xlink="http://www.w3.org/1999/xlink" 
	 viewBox="0 0 512 512" xml:space="preserve">
<path style="fill:#E6F6FF;" d="M442.255,329.157c0,15.176-12.31,27.486-27.486,27.486c-15.176,0-27.474-12.31-27.474-27.486
	c0-15.176,27.474-67.27,27.474-67.27S442.255,313.98,442.255,329.157z"/>
<g>
	<path style="fill:#CCC2B8;" d="M326.859,204.207c5.745-8.28,9.101-18.336,9.101-29.164c0-26.225-19.696-47.832-45.088-50.882
		c1.139-4.238,1.752-8.697,1.752-13.29c0-13.02-4.838-24.89-12.837-33.929c7.631-7.153,17.896-11.538,29.177-11.538
		c5.01,0,9.799,0.87,14.258,2.45c3.932-19.525,21.166-34.235,41.854-34.235c20.651,0,37.886,14.674,41.83,34.174
		c4.41-1.543,9.15-2.389,14.074-2.389c23.579,0,42.687,19.108,42.687,42.687c0,3.834-0.502,7.533-1.458,11.061
		c21.154,2.548,37.543,20.541,37.543,42.369c0,23.579-19.108,42.687-42.687,42.687H326.859z"/>
	<path style="fill:#CCC2B8;" d="M279.787,76.941c7.998,9.04,12.837,20.909,12.837,33.929c0,4.593-0.612,9.052-1.752,13.29
		c25.392,3.05,45.088,24.657,45.088,50.882c0,10.828-3.356,20.884-9.101,29.164c-9.26,13.351-24.694,22.097-42.173,22.097H63.51
		c-28.307,0-51.261-22.954-51.261-51.261c0-26.225,19.684-47.832,45.076-50.882c-1.127-4.238-1.739-8.697-1.739-13.29
		c0-28.307,22.942-51.261,51.261-51.261c6.002,0,11.759,1.041,17.124,2.94c4.704-23.444,25.416-41.107,50.245-41.107
		c24.816,0,45.504,17.626,50.245,41.033c5.291-1.85,10.975-2.866,16.903-2.866C256.661,59.609,270.392,66.31,279.787,76.941z"/>
</g>
<g>
	<path style="fill:#E6F6FF;" d="M311.769,445.275c0,25.012-20.272,45.284-45.284,45.284s-45.284-20.272-45.284-45.284
		c0-25.012,45.284-110.864,45.284-110.864S311.769,420.263,311.769,445.275z"/>
	<path style="fill:#E6F6FF;" d="M149.705,364.262c0,17.528-14.209,31.749-31.749,31.749s-31.749-14.221-31.749-31.749
		c0-17.54,31.749-77.743,31.749-77.743S149.705,346.721,149.705,364.262z"/>
</g>
<path d="M457.064,216.455H326.859c-6.764,0-12.249-5.485-12.249-12.249c0-6.764,5.485-12.249,12.249-12.249h130.205
	c16.783,0,30.438-13.654,30.438-30.438c0-15.385-11.504-28.369-26.759-30.207c-3.533-0.426-6.704-2.365-8.692-5.315
	c-1.989-2.948-2.597-6.616-1.667-10.049c0.686-2.528,1.033-5.173,1.033-7.859c0-16.785-13.654-30.439-30.438-30.439
	c-3.428,0-6.803,0.573-10.028,1.701c-3.341,1.171-7.026,0.838-10.104-0.915c-3.078-1.752-5.246-4.748-5.948-8.218
	c-2.854-14.112-15.397-24.353-29.825-24.353c-14.446,0-26.999,10.263-29.847,24.405c-0.699,3.48-2.877,6.486-5.965,8.237
	c-3.088,1.753-6.787,2.077-10.131,0.89c-3.273-1.159-6.694-1.747-10.168-1.747c-7.754,0-15.141,2.921-20.8,8.228
	c-4.935,4.625-12.686,4.376-17.314-0.56c-4.625-4.935-4.375-12.686,0.56-17.314c10.217-9.576,23.553-14.852,37.554-14.852
	c2.055,0,4.098,0.114,6.127,0.341c8.781-19.171,28.189-32.126,49.985-32.126c21.782,0,41.188,12.948,49.968,32.105
	c1.965-0.214,3.947-0.321,5.937-0.321c30.291,0,54.936,24.645,54.936,54.937c0,0.605-0.01,1.209-0.029,1.813
	c21.25,7.74,36.113,28.131,36.113,51.616C512,191.812,487.357,216.455,457.064,216.455z"/>
<path d="M284.687,238.552H63.51c-35.019,0-63.51-28.491-63.51-63.51c0-27.788,17.981-51.822,43.456-60.273
	c-0.08-1.298-0.12-2.598-0.12-3.9c0-35.019,28.491-63.51,63.511-63.51c2.978,0,5.937,0.207,8.863,0.619
	c9.764-23.063,32.679-38.786,58.505-38.786c25.801,0,48.721,15.713,58.502,38.756c2.856-0.391,5.742-0.588,8.646-0.588
	c18.194,0,35.542,7.825,47.598,21.464l0,0c10.262,11.597,15.912,26.528,15.912,42.045c0,1.302-0.039,2.604-0.12,3.904
	c25.475,8.454,43.456,32.486,43.456,60.269c0,13.006-3.904,25.504-11.287,36.147C325.04,228.322,305.512,238.552,284.687,238.552z
	 M106.846,71.858c-21.513,0-39.014,17.501-39.014,39.012c0,3.416,0.446,6.829,1.328,10.143c0.911,3.428,0.292,7.083-1.699,10.02
	c-1.99,2.936-5.156,4.866-8.678,5.289c-19.545,2.348-34.286,18.994-34.286,38.72c0,21.511,17.501,39.012,39.012,39.012h221.177
	c12.796,0,24.799-6.291,32.108-16.829c4.526-6.522,6.917-14.193,6.917-22.183c0-19.725-14.746-36.37-34.3-38.72
	c-3.529-0.424-6.699-2.359-8.689-5.304c-1.989-2.943-2.602-6.608-1.679-10.039c0.884-3.286,1.333-6.687,1.333-10.109
	c0-9.531-3.466-18.698-9.762-25.811c-0.001-0.002-0.004-0.005-0.006-0.007c-7.408-8.386-18.068-13.193-29.245-13.193
	c-4.395,0-8.722,0.734-12.862,2.18c-3.341,1.166-7.021,0.834-10.099-0.917c-3.076-1.752-5.244-4.746-5.946-8.215
	c-3.664-18.088-19.745-31.215-38.24-31.215c-18.52,0-34.6,13.15-38.236,31.268c-0.698,3.482-2.875,6.491-5.963,8.242
	c-3.092,1.754-6.79,2.079-10.135,0.894C115.687,72.61,111.302,71.858,106.846,71.858z"/>
<path d="M117.956,408.259c-24.261,0-43.998-19.737-43.998-43.998c0-19.087,25.383-68.705,33.162-83.457
	c2.119-4.019,6.291-6.535,10.835-6.535s8.715,2.516,10.835,6.535c7.78,14.752,33.162,64.37,33.162,83.457
	C161.954,388.522,142.216,408.259,117.956,408.259z M117.956,313.777c-10.61,22.094-19.5,43.759-19.5,50.485
	c0,10.752,8.748,19.5,19.5,19.5s19.5-8.748,19.5-19.5C137.456,357.536,128.566,335.871,117.956,313.777z"/>
<path d="M414.769,368.892c-21.903,0-39.723-17.826-39.723-39.735c0-16.895,22.112-60.134,28.888-72.984
	c2.119-4.019,6.291-6.535,10.834-6.535c4.544,0,8.714,2.515,10.835,6.534c6.78,12.849,28.901,56.09,28.901,72.986
	C454.504,351.066,436.678,368.892,414.769,368.892z M414.771,289.316c-8.439,17.866-15.228,34.69-15.228,39.839
	c0,8.401,6.83,15.238,15.225,15.238c8.401,0,15.236-6.836,15.236-15.238C430.007,324.007,423.216,307.183,414.771,289.316z"/>
<path d="M266.485,502.808c-31.723,0-57.533-25.808-57.533-57.533c0-26.693,38.901-101.795,46.699-116.579
	c3.154-5.985,10.56-8.278,16.548-5.12c5.984,3.155,8.275,10.565,5.12,16.548c-18.215,34.542-43.868,90.002-43.868,105.151
	c0,18.215,14.82,33.035,33.035,33.035c18.216,0,33.036-14.82,33.036-33.035c0-3.078-1.4-13.49-14.362-43.64
	c-2.671-6.214,0.201-13.419,6.416-16.091c6.215-2.668,13.42,0.202,16.091,6.416c14.657,34.095,16.352,46.756,16.352,53.314
	C324.018,477,298.208,502.808,266.485,502.808z"/>
<path d="M284.385,382.651c-4.558,0-8.917-2.55-11.009-6.949l-0.519-1.09c-2.913-6.106-0.326-13.417,5.78-16.33
	c6.107-2.913,13.416-0.326,16.33,5.78l0.483,1.013c2.907,6.108,0.333,13.469-5.774,16.374
	C287.963,382.265,286.159,382.651,284.385,382.651z"/>
</svg>