<?xml version="1.0" encoding="UTF-8"?>
<svg id="Livello_1" xmlns="http://www.w3.org/2000/svg" version="1.1" viewBox="0 0 24 24">
  <!-- Generator: Adobe Illustrator 29.8.2, SVG Export Plug-In . SVG Version: 2.1.1 Build 3)  -->
  <defs>
    <style>
      .st0 {
        fill-rule: evenodd;
      }

      .st0, .st1 {
        fill: #007a5c;
      }
    </style>
  </defs>
  <path class="st1" d="M15,3.3c1.8-.4,4.1-.4,7.2.4.5.1.9.7.7,1.2s-.7.9-1.2.7c-2.9-.7-4.9-.7-6.3-.4-1.5.3-2.5,1-3.7,1.6h0c-1.1.7-2.3,1.4-3.9,1.7-1.6.3-3.6,0-6.2-1-.5-.2-.8-.8-.6-1.3.2-.5.8-.8,1.3-.6,2.4,1,4,1.1,5.1.9,1.2-.2,2.1-.7,3.2-1.4,1.1-.7,2.4-1.5,4.3-1.9Z"/>
  <path class="st1" d="M22.2,7.6c-3.1-.8-5.4-.8-7.2-.4-1.8.4-3.2,1.2-4.3,1.9-1.1.7-2,1.2-3.2,1.4-1.2.2-2.7,0-5.1-.9-.5-.2-1.1,0-1.3.6-.2.5,0,1.1.6,1.3,2.6,1,4.5,1.3,6.2,1,1.6-.3,2.8-1,3.9-1.7h0c1.1-.7,2.2-1.4,3.7-1.7,1.5-.3,3.4-.3,6.3.4.5.1,1.1-.2,1.2-.7.1-.5-.2-1.1-.7-1.2Z"/>
  <path class="st0" d="M19,10c-.3,0-.6.2-.8.5,0,0-.2.3-.5.6-.3.4-.7,1-1.1,1.6-.4.6-.8,1.4-1.1,2.1-.3.7-.6,1.4-.5,2.2,0,.2,0,.4,0,.6,0,.3.2.8.4,1.3.2.5.6,1,1.2,1.4.6.4,1.4.6,2.3.6s1.7-.2,2.3-.6c.6-.4,1-.9,1.2-1.4.2-.5.4-1,.4-1.3,0-.2,0-.4,0-.6,0-.8-.3-1.5-.5-2.2-.3-.7-.7-1.4-1.1-2.1-.4-.6-.8-1.2-1.1-1.6-.2-.3-.4-.5-.5-.6-.2-.3-.5-.5-.8-.5ZM20.6,15.6c-.3-.6-.6-1.2-1-1.8-.2-.4-.4-.7-.6-1-.2.3-.4.6-.6,1-.4.6-.7,1.2-1,1.8h0c-.2.4-.4.9-.4,1.4,0,.4.1.7.3,1,.1.3.3.5.6.6.2.2.6.3,1.2.3s.9-.1,1.2-.3c.2-.2.4-.4.6-.6.2-.3.3-.7.3-1,0-.5-.2-.9-.4-1.4h0Z"/>
  <path class="st1" d="M14.1,11.5c.8-.2,1.3.5,1,1.3-.2.3-.3.6-.7.7-1,.3-1.8.8-2.6,1.3h0c-1.1.7-2.3,1.4-3.9,1.7-1.6.3-3.6,0-6.2-1-.5-.2-.8-.8-.6-1.3.2-.5.8-.8,1.3-.6,2.4,1,4,1.1,5.1.9,1.2-.2,2.1-.7,3.2-1.4,1.1-.7,2.2-1.2,3.4-1.6Z"/>
</svg>