<?xml version="1.0" encoding="UTF-8"?>
<svg xmlns="http://www.w3.org/2000/svg" version="1.1" viewBox="0 0 1656.6 334.7">
  <defs>
    <style>
      .cls-1 {
        fill: #003600;
      }

      .cls-2 {
        fill: #881337;
      }
    </style>
  </defs>
  <!-- Generator: Adobe Illustrator 28.7.1, SVG Export Plug-In . SVG Version: 1.2.0 Build 142)  -->
  <g>
    <g id="Livello_1">
      <g id="Livello_1-2" data-name="Livello_1">
        <g id="Livello_1-2">
          <g>
            <path class="cls-2" d="M174.6,209.4l-16.4,79.8h-12.5l15.9-78.4c1.1-5.3,1.8-10.7,1.8-16,0-11.8-6.3-18.4-17.5-18.4s-31.4,17-40.3,29.7c-2.5,3.7-4.3,6.7-5.2,10.4l-14.8,72.7h-12.8l16.2-78.4c.9-5.3,1.8-10.7,1.8-16,0-11.8-6.5-18.4-17.5-18.4s-31.6,17-40.3,29.7c-2.9,4-4.7,7.7-5.6,11.8l-14.6,71.3H0l25.1-121.9h11.9l-5.8,28.8c11.6-14.6,28-32.3,47.5-32.3s24.7,10.7,24.9,27.2c0,1.6.2,3,0,4.9h.2c12.1-15.3,28.5-32.1,47.5-32.1s25.3,11.1,25.3,28.1-.9,11.8-2,17.4h0Z"/>
            <path class="cls-2" d="M209.4,298.8c-10.5,20.7-25.1,38.5-53.6,40.6l.7-11.6c21.1-.5,34.5-16.7,43.7-36.9l-17.1-123.5h13.2l9.4,75.2c1.8,14.4,3.2,29.5,3.4,34.6h.5c3.2-6,10.3-20.9,17.7-35.5l37.4-74.3h12.8l-68.2,131.4h0q0-.1,0-.1Z"/>
            <path class="cls-1" d="M619.7,327.1l-3.1-157.4c-.4-20.8-.9-46.7-.9-64.3h-.9c-5.4,13.9-17,40.7-24.1,56.9l-36.6,83.3h-66.6l-33.5-74.1c-6.7-14.8-18.3-39.8-24.1-55.5h-.9c.4,8.3,0,37.5-.4,53.7l-3.6,157.4h-70.6L363.2.3h96.5l50.5,109.7c6.3,13.9,16.1,37.5,21,50.9h.9c4.9-12,10.3-27.3,18.8-46.7L601,.3h96.5l9.8,326.8h-87.6Z"/>
            <path class="cls-1" d="M975.5,173c0,7.4-.4,14.3-1.3,21.8l-150.2,19.4c7.6,40.3,36.2,64.8,81.3,64.8s42-2.8,57.2-14.3l3.6,2.3c.4,3.2.4,6,.4,9.3,0,48.6-42,58.3-80.4,58.3-77.8,0-143-49.1-143-134.2s51-129.1,126.9-129.1,105.5,37.5,105.5,101.8h0ZM896.4,158.2c0-19.9-8.9-40.3-32.6-40.3s-39.3,23.1-41.6,50.9l74.2-10.6Z"/>
            <path class="cls-1" d="M1097.9,239.6c0,25,14.3,40.3,38.4,40.3s21.9-3.2,29.1-10.2l3.1,1.9c.4,3.7.9,8.3.9,12.5,0,37-35.8,50.5-66.1,50.5-55.4,0-90.3-34.3-90.3-92.1v-109.2h-37.1l-2.2-2.8c2.2-25.5,20.1-38,39.3-51.8l78.2-57.4h6.3v57.4h62.6v54.6h-62.1v106.5-.2h-.1Z"/>
            <path class="cls-1" d="M1394.3,173c0,7.4-.4,14.3-1.3,21.8l-150.2,19.4c7.6,40.3,36.2,64.8,81.3,64.8s42-2.8,57.2-14.3l3.6,2.3c.4,3.2.4,6,.4,9.3,0,48.6-42,58.3-80.4,58.3-77.8,0-143-49.1-143-134.2s51-129.1,126.9-129.1,105.5,37.5,105.5,101.8h0ZM1315.1,158.2c0-19.9-8.9-40.3-32.6-40.3s-39.3,23.1-41.6,50.9l74.2-10.6Z"/>
            <path class="cls-1" d="M1524.3,335.9c-78.7,0-124.7-54.2-124.7-133.8s55-131,134.5-131,122.5,40.3,122.5,120.3-50.5,144.4-132.3,144.4h0ZM1527.4,125.3c-34.4,0-39.3,40.3-39.3,67.6s2.7,89.3,40.7,89.3,39.8-56.5,39.8-83.8-4.5-73.1-41.1-73.1h0Z"/>
          </g>
        </g>
      </g>
    </g>
  </g>
</svg>