<?xml version="1.0" encoding="UTF-8"?>
<svg xmlns="http://www.w3.org/2000/svg" version="1.1" viewBox="0 0 1920 426">
  <defs>
    <style>
      .cls-1 {
        fill: #003600;
      }

      .cls-2 {
        fill: #881337;
      }
    </style>
  </defs>
  <!-- Generator: Adobe Illustrator 28.7.0, SVG Export Plug-In . SVG Version: 1.2.0 Build 136)  -->
  <g>
    <g id="Livello_1">
      <g id="Livello_1-2" data-name="Livello_1">
        <g>
          <path class="cls-2" d="M348.2,167.2l-32.6,159.2h-25l31.7-156.4c2.2-10.6,3.6-21.3,3.6-31.9,0-23.6-12.5-36.6-34.9-36.6s-62.6,33.8-80.4,59.2c-4.9,7.4-8.5,13.4-10.3,20.8l-29.5,144.9h-25.5l32.2-156.4c1.8-10.6,3.6-21.3,3.6-31.9,0-23.6-13-36.6-34.9-36.6s-63,33.8-80.4,59.2c-5.8,7.9-9.4,15.3-11.2,23.6l-29.1,142.1H0L50.1,83.4h23.7l-11.6,57.4c23.2-29.2,55.9-64.3,94.7-64.3s49.2,21.3,49.6,54.2c0,3.2.4,6,0,9.7h.4c24.1-30.5,56.8-63.9,94.7-63.9s50.5,22.2,50.5,56-1.8,23.6-4,34.7h.1Z"/>
          <path class="cls-2" d="M417.4,345.4c-21,41.2-50.1,76.8-106.8,81l1.3-23.1c42-.9,68.8-33.3,87.2-73.6l-34-246.2h26.4l18.8,150c3.6,28.7,6.3,58.8,6.7,69h.9c6.3-12,20.6-41.7,35.3-70.8l74.6-148.1h25.5l-135.9,262v-.2Z"/>
          <path class="cls-1" d="M883.1,326.4l-3.1-157.4c-.4-20.8-.9-46.7-.9-64.3h-.9c-5.4,13.9-17,40.7-24.1,56.9l-36.6,83.3h-66.6l-33.5-74.1c-6.7-14.8-18.3-39.8-24.1-55.5h-.9c.4,8.3,0,37.5-.4,53.7l-3.6,157.4h-70.6L626.6-.4h96.5l50.5,109.7c6.3,13.9,16.1,37.5,21,50.9h.9c4.9-12,10.3-27.3,18.8-46.7L864.4-.4h96.5l9.8,326.8h-87.6Z"/>
          <path class="cls-1" d="M1238.9,172.3c0,7.4-.4,14.3-1.3,21.8l-150.2,19.4c7.6,40.3,36.2,64.8,81.3,64.8s42-2.8,57.2-14.3l3.6,2.3c.4,3.2.4,6,.4,9.3,0,48.6-42,58.3-80.4,58.3-77.8,0-143-49.1-143-134.2s51-129.1,126.9-129.1,105.5,37.5,105.5,101.8h0ZM1159.8,157.5c0-19.9-8.9-40.3-32.6-40.3s-39.3,23.1-41.6,50.9l74.2-10.6Z"/>
          <path class="cls-1" d="M1361.3,238.9c0,25,14.3,40.3,38.4,40.3s21.9-3.2,29.1-10.2l3.1,1.9c.4,3.7.9,8.3.9,12.5,0,37-35.8,50.5-66.1,50.5-55.4,0-90.3-34.3-90.3-92.1v-109.2h-37.1l-2.2-2.8c2.2-25.5,20.1-38,39.3-51.8l78.2-57.4h6.3v57.4h62.6v54.6h-62.1v106.5-.2Z"/>
          <path class="cls-1" d="M1657.7,172.3c0,7.4-.4,14.3-1.3,21.8l-150.2,19.4c7.6,40.3,36.2,64.8,81.3,64.8s42-2.8,57.2-14.3l3.6,2.3c.4,3.2.4,6,.4,9.3,0,48.6-42,58.3-80.4,58.3-77.8,0-143-49.1-143-134.2s51-129.1,126.9-129.1,105.5,37.5,105.5,101.8h0ZM1578.5,157.5c0-19.9-8.9-40.3-32.6-40.3s-39.3,23.1-41.6,50.9l74.2-10.6Z"/>
          <path class="cls-1" d="M1787.7,335.2c-78.7,0-124.7-54.2-124.7-133.8s55-131,134.5-131,122.5,40.3,122.5,120.3-50.5,144.4-132.3,144.4h0ZM1790.8,124.6c-34.4,0-39.3,40.3-39.3,67.6s2.7,89.3,40.7,89.3,39.8-56.5,39.8-83.8-4.5-73.1-41.1-73.1h0Z"/>
        </g>
      </g>
    </g>
  </g>
</svg>