<?xml version="1.0" encoding="UTF-8"?>
<svg id="Livello_1" xmlns="http://www.w3.org/2000/svg" version="1.1" viewBox="0 0 24 24">
  <!-- Generator: Adobe Illustrator 29.8.2, SVG Export Plug-In . SVG Version: 2.1.1 Build 3)  -->
  <defs>
    <style>
      .st0 {
        fill: none;
        stroke: #007a5c;
        stroke-linecap: round;
        stroke-linejoin: round;
        stroke-width: 2px;
      }
    </style>
  </defs>
  <path class="st0" d="M9.6,4.6c.8-.8,2-.8,2.8,0,.8.8.8,2,0,2.8-.4.4-.9.6-1.4.6H2M12.6,19.4c.8.8,2,.8,2.8,0,.8-.8.8-2,0-2.8-.4-.4-.9-.6-1.4-.6H2M17.7,7.7c1-1,2.6-1,3.5,0,1,1,1,2.6,0,3.5-.5.5-1.1.7-1.8.7H2"/>
</svg>